solid OpenSCAD_Model
  facet normal 0 0 -1
    outer loop
      vertex -2.5 3.09999 0
      vertex -3.89999 3.09999 0
      vertex -2.5 4.79999 0
    endloop
  endfacet
  facet normal -0 0 -1
    outer loop
      vertex 25.5237 2.124 0
      vertex 0 0 0
      vertex 25.5 2.5 0
    endloop
  endfacet
  facet normal -0 0 -1
    outer loop
      vertex 25.5942 1.75393 0
      vertex 0 0 0
      vertex 25.5237 2.124 0
    endloop
  endfacet
  facet normal -0 0 -1
    outer loop
      vertex 25.7107 1.39563 0
      vertex 0 0 0
      vertex 25.5942 1.75393 0
    endloop
  endfacet
  facet normal -0 0 -1
    outer loop
      vertex 25.8711 1.05474 0
      vertex 0 0 0
      vertex 25.7107 1.39563 0
    endloop
  endfacet
  facet normal -0 0 -1
    outer loop
      vertex 26.0729 0.736644 0
      vertex 0 0 0
      vertex 25.8711 1.05474 0
    endloop
  endfacet
  facet normal -0 0 -1
    outer loop
      vertex 26.3131 0.446359 0
      vertex 0 0 0
      vertex 26.0729 0.736644 0
    endloop
  endfacet
  facet normal -0 0 -1
    outer loop
      vertex 26.5877 0.188459 0
      vertex 0 0 0
      vertex 26.3131 0.446359 0
    endloop
  endfacet
  facet normal 0 0 -1
    outer loop
      vertex 0 0 0
      vertex 26.5877 0.188459 0
      vertex 26.8471 0 0
    endloop
  endfacet
  facet normal 0 0 -1
    outer loop
      vertex 31.4763 2.876 0
      vertex 32.4 0 0
      vertex 31.5 2.5 0
    endloop
  endfacet
  facet normal 0 0 -1
    outer loop
      vertex 32.4 0 0
      vertex 31.4763 2.124 0
      vertex 31.5 2.5 0
    endloop
  endfacet
  facet normal 0 0 -1
    outer loop
      vertex 32.4 0 0
      vertex 31.4058 1.75393 0
      vertex 31.4763 2.124 0
    endloop
  endfacet
  facet normal 0 0 -1
    outer loop
      vertex 32.4 0 0
      vertex 31.2893 1.39563 0
      vertex 31.4058 1.75393 0
    endloop
  endfacet
  facet normal 0 0 -1
    outer loop
      vertex 32.4 0 0
      vertex 31.1289 1.05474 0
      vertex 31.2893 1.39563 0
    endloop
  endfacet
  facet normal 0 0 -1
    outer loop
      vertex 32.4 0 0
      vertex 30.9271 0.736644 0
      vertex 31.1289 1.05474 0
    endloop
  endfacet
  facet normal 0 0 -1
    outer loop
      vertex 32.4 0 0
      vertex 30.6869 0.446359 0
      vertex 30.9271 0.736644 0
    endloop
  endfacet
  facet normal 0 0 -1
    outer loop
      vertex 32.4 0 0
      vertex 30.4123 0.188459 0
      vertex 30.6869 0.446359 0
    endloop
  endfacet
  facet normal 0 -0 -1
    outer loop
      vertex 30.4123 0.188459 0
      vertex 32.4 0 0
      vertex 30.1529 0 0
    endloop
  endfacet
  facet normal 0 0 -1
    outer loop
      vertex 32.4 0 0
      vertex 31.4763 2.876 0
      vertex 32.4 6.2 0
    endloop
  endfacet
  facet normal 0 0 -1
    outer loop
      vertex 31.4058 3.24607 0
      vertex 32.4 6.2 0
      vertex 31.4763 2.876 0
    endloop
  endfacet
  facet normal 0 0 -1
    outer loop
      vertex 31.2893 3.60437 0
      vertex 32.4 6.2 0
      vertex 31.4058 3.24607 0
    endloop
  endfacet
  facet normal 0 0 -1
    outer loop
      vertex 31.1289 3.94526 0
      vertex 32.4 6.2 0
      vertex 31.2893 3.60437 0
    endloop
  endfacet
  facet normal 0 0 -1
    outer loop
      vertex 30.9271 4.26336 0
      vertex 32.4 6.2 0
      vertex 31.1289 3.94526 0
    endloop
  endfacet
  facet normal 0 0 -1
    outer loop
      vertex 30.6869 4.55364 0
      vertex 32.4 6.2 0
      vertex 30.9271 4.26336 0
    endloop
  endfacet
  facet normal 0 0 -1
    outer loop
      vertex 30.4123 4.81154 0
      vertex 32.4 6.2 0
      vertex 30.6869 4.55364 0
    endloop
  endfacet
  facet normal 0 0 -1
    outer loop
      vertex 30.1075 5.03298 0
      vertex 32.4 6.2 0
      vertex 30.4123 4.81154 0
    endloop
  endfacet
  facet normal 0 0 -1
    outer loop
      vertex 29.7773 5.21448 0
      vertex 32.4 6.2 0
      vertex 30.1075 5.03298 0
    endloop
  endfacet
  facet normal 0 0 -1
    outer loop
      vertex 29.4271 5.35317 0
      vertex 32.4 6.2 0
      vertex 29.7773 5.21448 0
    endloop
  endfacet
  facet normal 0 0 -1
    outer loop
      vertex 29.0621 5.44686 0
      vertex 32.4 6.2 0
      vertex 29.4271 5.35317 0
    endloop
  endfacet
  facet normal 0 0 -1
    outer loop
      vertex 28.6884 5.49408 0
      vertex 32.4 6.2 0
      vertex 29.0621 5.44686 0
    endloop
  endfacet
  facet normal 0 0 -1
    outer loop
      vertex 28.3116 5.49408 0
      vertex 32.4 6.2 0
      vertex 28.6884 5.49408 0
    endloop
  endfacet
  facet normal 0 0 -1
    outer loop
      vertex 27.9379 5.44686 0
      vertex 32.4 6.2 0
      vertex 28.3116 5.49408 0
    endloop
  endfacet
  facet normal 0 0 -1
    outer loop
      vertex 0 4.79999 0
      vertex 25.5 2.5 0
      vertex 0 0 0
    endloop
  endfacet
  facet normal 0 0 -1
    outer loop
      vertex 25.5 2.5 0
      vertex 0 4.79999 0
      vertex 25.5237 2.876 0
    endloop
  endfacet
  facet normal 0 0 -1
    outer loop
      vertex 25.5237 2.876 0
      vertex 0 4.79999 0
      vertex 25.5942 3.24607 0
    endloop
  endfacet
  facet normal 0 0 -1
    outer loop
      vertex 25.5942 3.24607 0
      vertex 0 4.79999 0
      vertex 25.7107 3.60437 0
    endloop
  endfacet
  facet normal 0 0 -1
    outer loop
      vertex 25.7107 3.60437 0
      vertex 0 4.79999 0
      vertex 25.8711 3.94526 0
    endloop
  endfacet
  facet normal 0 0 -1
    outer loop
      vertex 25.8711 3.94526 0
      vertex 0 4.79999 0
      vertex 26.0729 4.26336 0
    endloop
  endfacet
  facet normal 0 0 -1
    outer loop
      vertex 26.0729 4.26336 0
      vertex 0 4.79999 0
      vertex 26.3131 4.55364 0
    endloop
  endfacet
  facet normal 0 0 -1
    outer loop
      vertex 26.3131 4.55364 0
      vertex 0 4.79999 0
      vertex 26.5877 4.81154 0
    endloop
  endfacet
  facet normal -0 0 -1
    outer loop
      vertex 26.5877 4.81154 0
      vertex 0 4.79999 0
      vertex 26.8925 5.03298 0
    endloop
  endfacet
  facet normal -0 0 -1
    outer loop
      vertex 26.8925 5.03298 0
      vertex 0 4.79999 0
      vertex 27.2227 5.21448 0
    endloop
  endfacet
  facet normal -0 0 -1
    outer loop
      vertex 27.2227 5.21448 0
      vertex 0 4.79999 0
      vertex 27.5729 5.35317 0
    endloop
  endfacet
  facet normal 0 0 -1
    outer loop
      vertex -3.89999 6.2 0
      vertex 27.5729 5.35317 0
      vertex 0 4.79999 0
    endloop
  endfacet
  facet normal 0 0 -1
    outer loop
      vertex 27.5729 5.35317 0
      vertex -3.89999 6.2 0
      vertex 27.9379 5.44686 0
    endloop
  endfacet
  facet normal 0 0 -1
    outer loop
      vertex -3.89999 6.2 0
      vertex 0 4.79999 0
      vertex -2.5 4.79999 0
    endloop
  endfacet
  facet normal 0 0 -1
    outer loop
      vertex 27.9379 5.44686 0
      vertex -3.89999 6.2 0
      vertex 32.4 6.2 0
    endloop
  endfacet
  facet normal 0 0 -1
    outer loop
      vertex -3.89999 6.2 0
      vertex -2.5 4.79999 0
      vertex -3.89999 3.09999 0
    endloop
  endfacet
  facet normal -0 0 1
    outer loop
      vertex 31.4763 2.876 9.5
      vertex 32.4 0 9.5
      vertex 32.4 6.2 9.5
    endloop
  endfacet
  facet normal 0 0 1
    outer loop
      vertex 32.4 0 9.5
      vertex 31.4763 2.876 9.5
      vertex 31.5 2.5 9.5
    endloop
  endfacet
  facet normal 0 0 1
    outer loop
      vertex 32.4 6.2 9.5
      vertex 31.4058 3.24607 9.5
      vertex 31.4763 2.876 9.5
    endloop
  endfacet
  facet normal 0 0 1
    outer loop
      vertex 32.4 6.2 9.5
      vertex 31.2893 3.60437 9.5
      vertex 31.4058 3.24607 9.5
    endloop
  endfacet
  facet normal 0 0 1
    outer loop
      vertex 32.4 6.2 9.5
      vertex 31.1289 3.94526 9.5
      vertex 31.2893 3.60437 9.5
    endloop
  endfacet
  facet normal 0 0 1
    outer loop
      vertex 32.4 6.2 9.5
      vertex 30.9271 4.26336 9.5
      vertex 31.1289 3.94526 9.5
    endloop
  endfacet
  facet normal 0 0 1
    outer loop
      vertex 32.4 6.2 9.5
      vertex 30.6869 4.55364 9.5
      vertex 30.9271 4.26336 9.5
    endloop
  endfacet
  facet normal 0 0 1
    outer loop
      vertex 32.4 6.2 9.5
      vertex 30.4123 4.81154 9.5
      vertex 30.6869 4.55364 9.5
    endloop
  endfacet
  facet normal 0 0 1
    outer loop
      vertex 32.4 6.2 9.5
      vertex 30.1075 5.03298 9.5
      vertex 30.4123 4.81154 9.5
    endloop
  endfacet
  facet normal 0 0 1
    outer loop
      vertex 32.4 6.2 9.5
      vertex 29.7773 5.21448 9.5
      vertex 30.1075 5.03298 9.5
    endloop
  endfacet
  facet normal 0 0 1
    outer loop
      vertex 32.4 6.2 9.5
      vertex 29.4271 5.35317 9.5
      vertex 29.7773 5.21448 9.5
    endloop
  endfacet
  facet normal 0 0 1
    outer loop
      vertex 32.4 6.2 9.5
      vertex 29.0621 5.44686 9.5
      vertex 29.4271 5.35317 9.5
    endloop
  endfacet
  facet normal 0 0 1
    outer loop
      vertex 32.4 6.2 9.5
      vertex 28.6884 5.49408 9.5
      vertex 29.0621 5.44686 9.5
    endloop
  endfacet
  facet normal 0 0 1
    outer loop
      vertex 32.4 6.2 9.5
      vertex 28.3116 5.49408 9.5
      vertex 28.6884 5.49408 9.5
    endloop
  endfacet
  facet normal 0 0 1
    outer loop
      vertex 32.4 6.2 9.5
      vertex 27.9379 5.44686 9.5
      vertex 28.3116 5.49408 9.5
    endloop
  endfacet
  facet normal 0 0 1
    outer loop
      vertex 25.5237 2.876 9.5
      vertex 0 4.79999 9.5
      vertex 25.5 2.5 9.5
    endloop
  endfacet
  facet normal 0 0 1
    outer loop
      vertex 25.5942 3.24607 9.5
      vertex 0 4.79999 9.5
      vertex 25.5237 2.876 9.5
    endloop
  endfacet
  facet normal 0 0 1
    outer loop
      vertex 25.7107 3.60437 9.5
      vertex 0 4.79999 9.5
      vertex 25.5942 3.24607 9.5
    endloop
  endfacet
  facet normal 0 0 1
    outer loop
      vertex 25.8711 3.94526 9.5
      vertex 0 4.79999 9.5
      vertex 25.7107 3.60437 9.5
    endloop
  endfacet
  facet normal 0 0 1
    outer loop
      vertex 26.0729 4.26336 9.5
      vertex 0 4.79999 9.5
      vertex 25.8711 3.94526 9.5
    endloop
  endfacet
  facet normal 0 0 1
    outer loop
      vertex 26.3131 4.55364 9.5
      vertex 0 4.79999 9.5
      vertex 26.0729 4.26336 9.5
    endloop
  endfacet
  facet normal 0 0 1
    outer loop
      vertex 26.5877 4.81154 9.5
      vertex 0 4.79999 9.5
      vertex 26.3131 4.55364 9.5
    endloop
  endfacet
  facet normal 0 0 1
    outer loop
      vertex 26.8925 5.03298 9.5
      vertex 0 4.79999 9.5
      vertex 26.5877 4.81154 9.5
    endloop
  endfacet
  facet normal 0 0 1
    outer loop
      vertex 27.2227 5.21448 9.5
      vertex 0 4.79999 9.5
      vertex 26.8925 5.03298 9.5
    endloop
  endfacet
  facet normal 0 0 1
    outer loop
      vertex 27.5729 5.35317 9.5
      vertex 0 4.79999 9.5
      vertex 27.2227 5.21448 9.5
    endloop
  endfacet
  facet normal 0 0 1
    outer loop
      vertex -3.89999 6.2 9.5
      vertex 27.5729 5.35317 9.5
      vertex 27.9379 5.44686 9.5
    endloop
  endfacet
  facet normal -0 0 1
    outer loop
      vertex -3.89999 6.2 9.5
      vertex 27.9379 5.44686 9.5
      vertex 32.4 6.2 9.5
    endloop
  endfacet
  facet normal 0 0 1
    outer loop
      vertex 27.5729 5.35317 9.5
      vertex -3.89999 6.2 9.5
      vertex 0 4.79999 9.5
    endloop
  endfacet
  facet normal 0 0 1
    outer loop
      vertex 0 4.79999 9.5
      vertex -3.89999 6.2 9.5
      vertex -2.5 4.79999 9.5
    endloop
  endfacet
  facet normal 0 0 1
    outer loop
      vertex -3.89999 3.09999 9.5
      vertex -2.5 4.79999 9.5
      vertex -3.89999 6.2 9.5
    endloop
  endfacet
  facet normal 0 0 1
    outer loop
      vertex -2.5 4.79999 9.5
      vertex -3.89999 3.09999 9.5
      vertex -2.5 3.09999 9.5
    endloop
  endfacet
  facet normal -0 0 1
    outer loop
      vertex 31.4763 2.124 9.5
      vertex 32.4 0 9.5
      vertex 31.5 2.5 9.5
    endloop
  endfacet
  facet normal -0 0 1
    outer loop
      vertex 31.4058 1.75393 9.5
      vertex 32.4 0 9.5
      vertex 31.4763 2.124 9.5
    endloop
  endfacet
  facet normal -0 0 1
    outer loop
      vertex 31.2893 1.39563 9.5
      vertex 32.4 0 9.5
      vertex 31.4058 1.75393 9.5
    endloop
  endfacet
  facet normal -0 0 1
    outer loop
      vertex 31.1289 1.05474 9.5
      vertex 32.4 0 9.5
      vertex 31.2893 1.39563 9.5
    endloop
  endfacet
  facet normal -0 0 1
    outer loop
      vertex 30.9271 0.736644 9.5
      vertex 32.4 0 9.5
      vertex 31.1289 1.05474 9.5
    endloop
  endfacet
  facet normal -0 0 1
    outer loop
      vertex 30.6869 0.446359 9.5
      vertex 32.4 0 9.5
      vertex 30.9271 0.736644 9.5
    endloop
  endfacet
  facet normal -0 0 1
    outer loop
      vertex 30.4123 0.188459 9.5
      vertex 32.4 0 9.5
      vertex 30.6869 0.446359 9.5
    endloop
  endfacet
  facet normal 0 0 1
    outer loop
      vertex 32.4 0 9.5
      vertex 30.4123 0.188459 9.5
      vertex 30.1529 0 9.5
    endloop
  endfacet
  facet normal 0 0 1
    outer loop
      vertex 0 0 9.5
      vertex 25.5 2.5 9.5
      vertex 0 4.79999 9.5
    endloop
  endfacet
  facet normal 0 0 1
    outer loop
      vertex 25.5 2.5 9.5
      vertex 0 0 9.5
      vertex 25.5237 2.124 9.5
    endloop
  endfacet
  facet normal 0 0 1
    outer loop
      vertex 25.5237 2.124 9.5
      vertex 0 0 9.5
      vertex 25.5942 1.75393 9.5
    endloop
  endfacet
  facet normal 0 0 1
    outer loop
      vertex 25.5942 1.75393 9.5
      vertex 0 0 9.5
      vertex 25.7107 1.39563 9.5
    endloop
  endfacet
  facet normal 0 0 1
    outer loop
      vertex 25.7107 1.39563 9.5
      vertex 0 0 9.5
      vertex 25.8711 1.05474 9.5
    endloop
  endfacet
  facet normal 0 0 1
    outer loop
      vertex 25.8711 1.05474 9.5
      vertex 0 0 9.5
      vertex 26.0729 0.736644 9.5
    endloop
  endfacet
  facet normal 0 0 1
    outer loop
      vertex 26.0729 0.736644 9.5
      vertex 0 0 9.5
      vertex 26.3131 0.446359 9.5
    endloop
  endfacet
  facet normal 0 0 1
    outer loop
      vertex 26.3131 0.446359 9.5
      vertex 0 0 9.5
      vertex 26.5877 0.188459 9.5
    endloop
  endfacet
  facet normal 0 0 1
    outer loop
      vertex 26.5877 0.188459 9.5
      vertex 0 0 9.5
      vertex 26.8471 0 9.5
    endloop
  endfacet
  facet normal 0 1 -0
    outer loop
      vertex 32.4 6.2 0
      vertex -3.89999 6.2 9.5
      vertex 32.4 6.2 9.5
    endloop
  endfacet
  facet normal 0 1 0
    outer loop
      vertex -3.89999 6.2 9.5
      vertex 32.4 6.2 0
      vertex -3.89999 6.2 0
    endloop
  endfacet
  facet normal -1 0 0
    outer loop
      vertex -3.89999 3.09999 0
      vertex -3.89999 6.2 9.5
      vertex -3.89999 6.2 0
    endloop
  endfacet
  facet normal -1 -0 0
    outer loop
      vertex -3.89999 6.2 9.5
      vertex -3.89999 3.09999 0
      vertex -3.89999 3.09999 9.5
    endloop
  endfacet
  facet normal 0 -1 0
    outer loop
      vertex -3.89999 3.09999 0
      vertex -2.5 3.09999 9.5
      vertex -3.89999 3.09999 9.5
    endloop
  endfacet
  facet normal 0 -1 -0
    outer loop
      vertex -2.5 3.09999 9.5
      vertex -3.89999 3.09999 0
      vertex -2.5 3.09999 0
    endloop
  endfacet
  facet normal 1 -0 0
    outer loop
      vertex -2.5 3.09999 9.5
      vertex -2.5 4.79999 0
      vertex -2.5 4.79999 9.5
    endloop
  endfacet
  facet normal 1 0 0
    outer loop
      vertex -2.5 4.79999 0
      vertex -2.5 3.09999 9.5
      vertex -2.5 3.09999 0
    endloop
  endfacet
  facet normal 0 -1 0
    outer loop
      vertex -2.5 4.79999 0
      vertex 0 4.79999 9.5
      vertex -2.5 4.79999 9.5
    endloop
  endfacet
  facet normal 0 -1 -0
    outer loop
      vertex 0 4.79999 9.5
      vertex -2.5 4.79999 0
      vertex 0 4.79999 0
    endloop
  endfacet
  facet normal -1 0 0
    outer loop
      vertex 0 0 0
      vertex 0 4.79999 9.5
      vertex 0 4.79999 0
    endloop
  endfacet
  facet normal -1 -0 0
    outer loop
      vertex 0 4.79999 9.5
      vertex 0 0 0
      vertex 0 0 9.5
    endloop
  endfacet
  facet normal 0 -1 0
    outer loop
      vertex 0 0 0
      vertex 26.8471 0 9.5
      vertex 0 0 9.5
    endloop
  endfacet
  facet normal 0 -1 -0
    outer loop
      vertex 26.8471 0 9.5
      vertex 0 0 0
      vertex 26.8471 0 0
    endloop
  endfacet
  facet normal 0 -1 0
    outer loop
      vertex 30.1529 0 0
      vertex 32.4 0 9.5
      vertex 30.1529 0 9.5
    endloop
  endfacet
  facet normal 0 -1 -0
    outer loop
      vertex 32.4 0 9.5
      vertex 30.1529 0 0
      vertex 32.4 0 0
    endloop
  endfacet
  facet normal 1 -0 0
    outer loop
      vertex 32.4 0 9.5
      vertex 32.4 6.2 0
      vertex 32.4 6.2 9.5
    endloop
  endfacet
  facet normal 1 0 0
    outer loop
      vertex 32.4 6.2 0
      vertex 32.4 0 9.5
      vertex 32.4 0 0
    endloop
  endfacet
  facet normal -0.684594 -0.728924 0
    outer loop
      vertex 30.4123 4.81154 0
      vertex 30.6869 4.55364 9.5
      vertex 30.4123 4.81154 9.5
    endloop
  endfacet
  facet normal -0.684594 -0.728924 -0
    outer loop
      vertex 30.6869 4.55364 9.5
      vertex 30.4123 4.81154 0
      vertex 30.6869 4.55364 0
    endloop
  endfacet
  facet normal -0.770441 0.637511 0
    outer loop
      vertex 30.6869 0.446359 0
      vertex 30.9271 0.736644 9.5
      vertex 30.9271 0.736644 0
    endloop
  endfacet
  facet normal -0.770441 0.637511 0
    outer loop
      vertex 30.9271 0.736644 9.5
      vertex 30.6869 0.446359 0
      vertex 30.6869 0.446359 9.5
    endloop
  endfacet
  facet normal -0.950993 -0.309212 0
    outer loop
      vertex 31.4058 3.24607 0
      vertex 31.2893 3.60437 9.5
      vertex 31.2893 3.60437 0
    endloop
  endfacet
  facet normal -0.950993 -0.309212 0
    outer loop
      vertex 31.2893 3.60437 9.5
      vertex 31.4058 3.24607 0
      vertex 31.4058 3.24607 9.5
    endloop
  endfacet
  facet normal 0.998019 -0.0629071 0
    outer loop
      vertex 25.5 2.5 9.5
      vertex 25.5237 2.876 0
      vertex 25.5237 2.876 9.5
    endloop
  endfacet
  facet normal 0.998019 -0.0629071 0
    outer loop
      vertex 25.5237 2.876 0
      vertex 25.5 2.5 9.5
      vertex 25.5 2.5 0
    endloop
  endfacet
  facet normal -0.998019 0.0629071 0
    outer loop
      vertex 31.4763 2.124 0
      vertex 31.5 2.5 9.5
      vertex 31.5 2.5 0
    endloop
  endfacet
  facet normal -0.998019 0.0629071 0
    outer loop
      vertex 31.5 2.5 9.5
      vertex 31.4763 2.124 0
      vertex 31.4763 2.124 9.5
    endloop
  endfacet
  facet normal 0.125361 -0.992111 0
    outer loop
      vertex 27.9379 5.44686 0
      vertex 28.3116 5.49408 9.5
      vertex 27.9379 5.44686 9.5
    endloop
  endfacet
  facet normal 0.125361 -0.992111 0
    outer loop
      vertex 28.3116 5.49408 9.5
      vertex 27.9379 5.44686 0
      vertex 28.3116 5.49408 0
    endloop
  endfacet
  facet normal -0.998019 -0.0629071 0
    outer loop
      vertex 31.5 2.5 0
      vertex 31.4763 2.876 9.5
      vertex 31.4763 2.876 0
    endloop
  endfacet
  facet normal -0.998019 -0.0629071 0
    outer loop
      vertex 31.4763 2.876 9.5
      vertex 31.5 2.5 0
      vertex 31.5 2.5 9.5
    endloop
  endfacet
  facet normal -0.950993 0.309212 0
    outer loop
      vertex 31.2893 1.39563 0
      vertex 31.4058 1.75393 9.5
      vertex 31.4058 1.75393 0
    endloop
  endfacet
  facet normal -0.950993 0.309212 0
    outer loop
      vertex 31.4058 1.75393 9.5
      vertex 31.2893 1.39563 0
      vertex 31.2893 1.39563 9.5
    endloop
  endfacet
  facet normal -0.844412 0.535695 0
    outer loop
      vertex 30.9271 0.736644 0
      vertex 31.1289 1.05474 9.5
      vertex 31.1289 1.05474 0
    endloop
  endfacet
  facet normal -0.844412 0.535695 0
    outer loop
      vertex 31.1289 1.05474 9.5
      vertex 30.9271 0.736644 0
      vertex 30.9271 0.736644 9.5
    endloop
  endfacet
  facet normal -0.982333 -0.187139 0
    outer loop
      vertex 31.4763 2.876 0
      vertex 31.4058 3.24607 9.5
      vertex 31.4058 3.24607 0
    endloop
  endfacet
  facet normal -0.982333 -0.187139 0
    outer loop
      vertex 31.4058 3.24607 9.5
      vertex 31.4763 2.876 0
      vertex 31.4763 2.876 9.5
    endloop
  endfacet
  facet normal 0.684594 0.728924 -0
    outer loop
      vertex 26.5877 0.188459 0
      vertex 26.3131 0.446359 9.5
      vertex 26.5877 0.188459 9.5
    endloop
  endfacet
  facet normal 0.684594 0.728924 0
    outer loop
      vertex 26.3131 0.446359 9.5
      vertex 26.5877 0.188459 0
      vertex 26.3131 0.446359 0
    endloop
  endfacet
  facet normal 0.998019 0.0629071 0
    outer loop
      vertex 25.5237 2.124 9.5
      vertex 25.5 2.5 0
      vertex 25.5 2.5 9.5
    endloop
  endfacet
  facet normal 0.998019 0.0629071 0
    outer loop
      vertex 25.5 2.5 0
      vertex 25.5237 2.124 9.5
      vertex 25.5237 2.124 0
    endloop
  endfacet
  facet normal -0.844415 -0.53569 0
    outer loop
      vertex 31.1289 3.94526 0
      vertex 30.9271 4.26336 9.5
      vertex 30.9271 4.26336 0
    endloop
  endfacet
  facet normal -0.844415 -0.53569 0
    outer loop
      vertex 30.9271 4.26336 9.5
      vertex 31.1289 3.94526 0
      vertex 31.1289 3.94526 9.5
    endloop
  endfacet
  facet normal -0.904838 -0.425756 0
    outer loop
      vertex 31.2893 3.60437 0
      vertex 31.1289 3.94526 9.5
      vertex 31.1289 3.94526 0
    endloop
  endfacet
  facet normal -0.904838 -0.425756 0
    outer loop
      vertex 31.1289 3.94526 9.5
      vertex 31.2893 3.60437 0
      vertex 31.2893 3.60437 9.5
    endloop
  endfacet
  facet normal 0.950993 0.309212 0
    outer loop
      vertex 25.7107 1.39563 9.5
      vertex 25.5942 1.75393 0
      vertex 25.5942 1.75393 9.5
    endloop
  endfacet
  facet normal 0.950993 0.309212 0
    outer loop
      vertex 25.5942 1.75393 0
      vertex 25.7107 1.39563 9.5
      vertex 25.7107 1.39563 0
    endloop
  endfacet
  facet normal 0.587773 0.809026 -0
    outer loop
      vertex 26.8471 0 0
      vertex 26.5877 0.188459 9.5
      vertex 26.8471 0 9.5
    endloop
  endfacet
  facet normal 0.587773 0.809026 0
    outer loop
      vertex 26.5877 0.188459 9.5
      vertex 26.8471 0 0
      vertex 26.5877 0.188459 0
    endloop
  endfacet
  facet normal 0.950993 -0.309212 0
    outer loop
      vertex 25.5942 3.24607 9.5
      vertex 25.7107 3.60437 0
      vertex 25.7107 3.60437 9.5
    endloop
  endfacet
  facet normal 0.950993 -0.309212 0
    outer loop
      vertex 25.7107 3.60437 0
      vertex 25.5942 3.24607 9.5
      vertex 25.5942 3.24607 0
    endloop
  endfacet
  facet normal -0.982333 0.187139 0
    outer loop
      vertex 31.4058 1.75393 0
      vertex 31.4763 2.124 9.5
      vertex 31.4763 2.124 0
    endloop
  endfacet
  facet normal -0.982333 0.187139 0
    outer loop
      vertex 31.4763 2.124 9.5
      vertex 31.4058 1.75393 0
      vertex 31.4058 1.75393 9.5
    endloop
  endfacet
  facet normal 0.982333 0.187139 0
    outer loop
      vertex 25.5942 1.75393 9.5
      vertex 25.5237 2.124 0
      vertex 25.5237 2.124 9.5
    endloop
  endfacet
  facet normal 0.982333 0.187139 0
    outer loop
      vertex 25.5237 2.124 0
      vertex 25.5942 1.75393 9.5
      vertex 25.5942 1.75393 0
    endloop
  endfacet
  facet normal 0.587768 -0.80903 0
    outer loop
      vertex 26.5877 4.81154 0
      vertex 26.8925 5.03298 9.5
      vertex 26.5877 4.81154 9.5
    endloop
  endfacet
  facet normal 0.587768 -0.80903 0
    outer loop
      vertex 26.8925 5.03298 9.5
      vertex 26.5877 4.81154 0
      vertex 26.8925 5.03298 0
    endloop
  endfacet
  facet normal -0.125361 -0.992111 0
    outer loop
      vertex 28.6884 5.49408 0
      vertex 29.0621 5.44686 9.5
      vertex 28.6884 5.49408 9.5
    endloop
  endfacet
  facet normal -0.125361 -0.992111 -0
    outer loop
      vertex 29.0621 5.44686 9.5
      vertex 28.6884 5.49408 0
      vertex 29.0621 5.44686 0
    endloop
  endfacet
  facet normal -0.770436 -0.637518 0
    outer loop
      vertex 30.9271 4.26336 0
      vertex 30.6869 4.55364 9.5
      vertex 30.6869 4.55364 0
    endloop
  endfacet
  facet normal -0.770436 -0.637518 0
    outer loop
      vertex 30.6869 4.55364 9.5
      vertex 30.9271 4.26336 0
      vertex 30.9271 4.26336 9.5
    endloop
  endfacet
  facet normal 0.770436 -0.637518 0
    outer loop
      vertex 26.0729 4.26336 9.5
      vertex 26.3131 4.55364 0
      vertex 26.3131 4.55364 9.5
    endloop
  endfacet
  facet normal 0.770436 -0.637518 0
    outer loop
      vertex 26.3131 4.55364 0
      vertex 26.0729 4.26336 9.5
      vertex 26.0729 4.26336 0
    endloop
  endfacet
  facet normal 0.248625 -0.9686 0
    outer loop
      vertex 27.5729 5.35317 0
      vertex 27.9379 5.44686 9.5
      vertex 27.5729 5.35317 9.5
    endloop
  endfacet
  facet normal 0.248625 -0.9686 0
    outer loop
      vertex 27.9379 5.44686 9.5
      vertex 27.5729 5.35317 0
      vertex 27.9379 5.44686 0
    endloop
  endfacet
  facet normal -0.587768 -0.80903 0
    outer loop
      vertex 30.1075 5.03298 0
      vertex 30.4123 4.81154 9.5
      vertex 30.1075 5.03298 9.5
    endloop
  endfacet
  facet normal -0.587768 -0.80903 -0
    outer loop
      vertex 30.4123 4.81154 9.5
      vertex 30.1075 5.03298 0
      vertex 30.4123 4.81154 0
    endloop
  endfacet
  facet normal 0.770441 0.637511 0
    outer loop
      vertex 26.3131 0.446359 9.5
      vertex 26.0729 0.736644 0
      vertex 26.0729 0.736644 9.5
    endloop
  endfacet
  facet normal 0.770441 0.637511 0
    outer loop
      vertex 26.0729 0.736644 0
      vertex 26.3131 0.446359 9.5
      vertex 26.3131 0.446359 0
    endloop
  endfacet
  facet normal 0.904838 0.425756 0
    outer loop
      vertex 25.8711 1.05474 9.5
      vertex 25.7107 1.39563 0
      vertex 25.7107 1.39563 9.5
    endloop
  endfacet
  facet normal 0.904838 0.425756 0
    outer loop
      vertex 25.7107 1.39563 0
      vertex 25.8711 1.05474 9.5
      vertex 25.8711 1.05474 0
    endloop
  endfacet
  facet normal -0.904838 0.425756 0
    outer loop
      vertex 31.1289 1.05474 0
      vertex 31.2893 1.39563 9.5
      vertex 31.2893 1.39563 0
    endloop
  endfacet
  facet normal -0.904838 0.425756 0
    outer loop
      vertex 31.2893 1.39563 9.5
      vertex 31.1289 1.05474 0
      vertex 31.1289 1.05474 9.5
    endloop
  endfacet
  facet normal 0 -1 0
    outer loop
      vertex 28.3116 5.49408 0
      vertex 28.6884 5.49408 9.5
      vertex 28.3116 5.49408 9.5
    endloop
  endfacet
  facet normal 0 -1 -0
    outer loop
      vertex 28.6884 5.49408 9.5
      vertex 28.3116 5.49408 0
      vertex 28.6884 5.49408 0
    endloop
  endfacet
  facet normal -0.481695 -0.876339 0
    outer loop
      vertex 29.7773 5.21448 0
      vertex 30.1075 5.03298 9.5
      vertex 29.7773 5.21448 9.5
    endloop
  endfacet
  facet normal -0.481695 -0.876339 -0
    outer loop
      vertex 30.1075 5.03298 9.5
      vertex 29.7773 5.21448 0
      vertex 30.1075 5.03298 0
    endloop
  endfacet
  facet normal -0.248625 -0.9686 0
    outer loop
      vertex 29.0621 5.44686 0
      vertex 29.4271 5.35317 9.5
      vertex 29.0621 5.44686 9.5
    endloop
  endfacet
  facet normal -0.248625 -0.9686 -0
    outer loop
      vertex 29.4271 5.35317 9.5
      vertex 29.0621 5.44686 0
      vertex 29.4271 5.35317 0
    endloop
  endfacet
  facet normal 0.684594 -0.728924 0
    outer loop
      vertex 26.3131 4.55364 0
      vertex 26.5877 4.81154 9.5
      vertex 26.3131 4.55364 9.5
    endloop
  endfacet
  facet normal 0.684594 -0.728924 0
    outer loop
      vertex 26.5877 4.81154 9.5
      vertex 26.3131 4.55364 0
      vertex 26.5877 4.81154 0
    endloop
  endfacet
  facet normal 0.481695 -0.876339 0
    outer loop
      vertex 26.8925 5.03298 0
      vertex 27.2227 5.21448 9.5
      vertex 26.8925 5.03298 9.5
    endloop
  endfacet
  facet normal 0.481695 -0.876339 0
    outer loop
      vertex 27.2227 5.21448 9.5
      vertex 26.8925 5.03298 0
      vertex 27.2227 5.21448 0
    endloop
  endfacet
  facet normal 0.368207 -0.929744 0
    outer loop
      vertex 27.2227 5.21448 0
      vertex 27.5729 5.35317 9.5
      vertex 27.2227 5.21448 9.5
    endloop
  endfacet
  facet normal 0.368207 -0.929744 0
    outer loop
      vertex 27.5729 5.35317 9.5
      vertex 27.2227 5.21448 0
      vertex 27.5729 5.35317 0
    endloop
  endfacet
  facet normal -0.368207 -0.929744 0
    outer loop
      vertex 29.4271 5.35317 0
      vertex 29.7773 5.21448 9.5
      vertex 29.4271 5.35317 9.5
    endloop
  endfacet
  facet normal -0.368207 -0.929744 -0
    outer loop
      vertex 29.7773 5.21448 9.5
      vertex 29.4271 5.35317 0
      vertex 29.7773 5.21448 0
    endloop
  endfacet
  facet normal 0.982333 -0.187139 0
    outer loop
      vertex 25.5237 2.876 9.5
      vertex 25.5942 3.24607 0
      vertex 25.5942 3.24607 9.5
    endloop
  endfacet
  facet normal 0.982333 -0.187139 0
    outer loop
      vertex 25.5942 3.24607 0
      vertex 25.5237 2.876 9.5
      vertex 25.5237 2.876 0
    endloop
  endfacet
  facet normal 0.844415 -0.53569 0
    outer loop
      vertex 25.8711 3.94526 9.5
      vertex 26.0729 4.26336 0
      vertex 26.0729 4.26336 9.5
    endloop
  endfacet
  facet normal 0.844415 -0.53569 0
    outer loop
      vertex 26.0729 4.26336 0
      vertex 25.8711 3.94526 9.5
      vertex 25.8711 3.94526 0
    endloop
  endfacet
  facet normal -0.684594 0.728924 0
    outer loop
      vertex 30.6869 0.446359 0
      vertex 30.4123 0.188459 9.5
      vertex 30.6869 0.446359 9.5
    endloop
  endfacet
  facet normal -0.684594 0.728924 0
    outer loop
      vertex 30.4123 0.188459 9.5
      vertex 30.6869 0.446359 0
      vertex 30.4123 0.188459 0
    endloop
  endfacet
  facet normal -0.587773 0.809026 0
    outer loop
      vertex 30.4123 0.188459 0
      vertex 30.1529 0 9.5
      vertex 30.4123 0.188459 9.5
    endloop
  endfacet
  facet normal -0.587773 0.809026 0
    outer loop
      vertex 30.1529 0 9.5
      vertex 30.4123 0.188459 0
      vertex 30.1529 0 0
    endloop
  endfacet
  facet normal 0.904838 -0.425756 0
    outer loop
      vertex 25.7107 3.60437 9.5
      vertex 25.8711 3.94526 0
      vertex 25.8711 3.94526 9.5
    endloop
  endfacet
  facet normal 0.904838 -0.425756 0
    outer loop
      vertex 25.8711 3.94526 0
      vertex 25.7107 3.60437 9.5
      vertex 25.7107 3.60437 0
    endloop
  endfacet
  facet normal 0.844412 0.535695 0
    outer loop
      vertex 26.0729 0.736644 9.5
      vertex 25.8711 1.05474 0
      vertex 25.8711 1.05474 9.5
    endloop
  endfacet
  facet normal 0.844412 0.535695 0
    outer loop
      vertex 25.8711 1.05474 0
      vertex 26.0729 0.736644 9.5
      vertex 26.0729 0.736644 0
    endloop
  endfacet
endsolid OpenSCAD_Model
